<svg width="512" height="512" viewBox="0 0 512 512" fill="none" xmlns="http://www.w3.org/2000/svg">
<path d="M345.708 291.312V343.069H340.295V291.312H345.708Z" fill="#9371DB"/>
<mask id="mask0_179_593" style="mask-type:alpha" maskUnits="userSpaceOnUse" x="255" y="0" width="208" height="512">
<path d="M255.817 240.941L258.351 242.499L324.244 417.493L398.374 512L372.397 435.667L392.672 417.493L369.229 325.063L444.626 265.866L440.191 189.014L463 124.625L399.641 0L255.817 204.592V240.941Z" fill="#9371DB"/>
</mask>
<g mask="url(#mask0_179_593)">
<path d="M255.817 240.941L258.351 242.499L324.245 417.493L398.374 512L372.397 435.667L392.672 417.493L369.229 325.063L444.626 265.866L440.191 189.014L463 124.625L399.641 0L255.817 204.592V240.941Z" fill="#9371DB"/>
<g style="mix-blend-mode:screen">
<path d="M399.007 -11.4241L246.946 204.073L248.847 248.73L310.305 421.128L393.305 522.905L411.046 508.884L385.702 319.87L452.862 266.385L446.527 192.13L468.068 124.625L399.007 -11.4241Z" fill="#9371DB"/>
</g>
<g style="mix-blend-mode:screen">
<path d="M437.657 31.1562L416.115 37.9068L401.542 51.927L388.237 47.7729L378.733 35.8297L347.687 39.4646L380.634 82.0447L328.046 178.629L274.825 171.359L316.008 147.992L322.977 116.836L343.886 105.931L311.573 83.0832L260.886 168.763L316.008 240.941L274.825 223.805L259.935 227.7L245.046 231.594L260.886 268.463L319.809 245.095L331.847 260.674L313.473 268.463L319.809 305.85L249.481 275.213L319.809 327.659L310.305 340.122L293.832 327.659L279.26 366.085H316.008L325.512 338.045L334.382 366.085L317.908 397.241L319.809 454.88L345.153 423.205L348.954 407.108L384.435 416.454V431.513L433.855 428.917L348.954 393.087L340.084 353.623L371.13 362.45L399.008 347.392L340.084 327.659L345.153 277.29L372.397 284.56L396.473 331.813L442.725 325.063L400.908 301.177L399.008 285.598L374.298 283.521L393.305 256.519L456.664 271.059L461.099 258.596L404.71 190.053L416.115 144.357L461.099 166.166L480.74 94.5072L430.687 88.7952L463.634 135.01L456.664 157.858L435.122 124.106L404.71 110.085L430.687 76.852L437.657 31.1562Z" fill="#9371DB"/>
</g>
<path d="M360.992 52.9653L330.578 97.1033L352.756 111.643L360.992 52.9653Z" fill="#9371DB"/>
<path d="M408.512 4.67334L380.631 23.3671L378.733 35.8295L388.237 47.7727L416.115 38.4259L408.512 4.67334Z" fill="#9371DB"/>
<path d="M450.962 159.647L418.649 207.708L450.962 246.134V159.647Z" fill="#9371DB"/>
<path d="M407.878 259.115L399.008 285.598L400.909 303.253L430.054 292.868L407.878 259.115Z" fill="#9371DB"/>
<path d="M376.198 291.311L340.718 317.274L343.886 329.217L369.229 325.063L376.198 291.311Z" fill="#9371DB"/>
<path d="M371.13 362.45L347.687 355.7L392.672 411.781L378.1 358.296L371.13 362.45Z" fill="#9371DB"/>
<path d="M371.13 362.45L347.687 355.7L392.672 411.781L378.1 358.296L371.13 362.45Z" fill="#9371DB"/>
<path d="M360.992 430.475L347.053 414.377L345.153 423.205L336.282 434.109L369.863 480.324L373.031 435.667L360.992 430.475Z" fill="#9371DB"/>
<path d="M360.992 430.475L347.053 414.377L345.153 423.205L336.282 434.109L369.863 480.324L373.031 435.667L360.992 430.475Z" fill="#9371DB"/>
<path d="M269.756 200.957L262.786 189.014L249.481 213.939L274.825 224.325L283.695 201.996L269.756 200.957Z" fill="#9371DB"/>
<path d="M269.756 200.957L262.786 189.014L249.481 213.939L274.825 224.325L283.695 201.996L269.756 200.957Z" fill="#9371DB"/>
<path d="M269.756 200.957L262.786 189.014L249.481 213.939L274.825 224.325L283.695 201.996L269.756 200.957Z" fill="#9371DB"/>
<path d="M269.756 200.957L262.786 189.014L249.481 213.939L274.825 224.325L283.695 201.996L269.756 200.957Z" fill="#9371DB"/>
<path d="M283.062 259.635L266.588 265.866L298.268 296.503L304.604 286.637L313.474 268.462L283.062 259.635Z" fill="#9371DB"/>
<path d="M283.062 259.635L266.588 265.866L298.268 296.503L304.604 286.637L313.474 268.462L283.062 259.635Z" fill="#9371DB"/>
<path d="M283.062 259.635L266.588 265.866L298.268 296.503L304.604 286.637L313.474 268.462L283.062 259.635Z" fill="#9371DB"/>
<path d="M283.062 259.635L266.588 265.866L298.268 296.503L304.604 286.637L313.474 268.462L283.062 259.635Z" fill="#9371DB"/>
<path d="M313.473 321.947L293.832 327.659L310.306 340.122L319.809 337.525L313.473 321.947Z" fill="#9371DB"/>
<path d="M313.473 321.947L293.832 327.659L310.306 340.122L319.809 337.525L313.473 321.947Z" fill="#9371DB"/>
<path d="M313.473 321.947L293.832 327.659L310.306 340.122L319.809 337.525L313.473 321.947Z" fill="#9371DB"/>
<path d="M313.473 321.947L293.832 327.659L310.306 340.122L319.809 337.525L313.473 321.947Z" fill="#9371DB"/>
<path d="M316.008 366.085H302.702L306.504 376.99L316.008 366.085Z" fill="#9371DB"/>
<path d="M316.008 366.085H302.702L306.504 376.99L316.008 366.085Z" fill="#9371DB"/>
<path d="M316.008 366.085H302.702L306.504 376.99L316.008 366.085Z" fill="#9371DB"/>
<path d="M316.008 366.085H302.702L306.504 376.99L316.008 366.085Z" fill="#9371DB"/>
<path d="M316.008 147.992L286.863 141.241L313.473 171.359L324.878 162.012L333.748 143.838L316.008 147.992Z" fill="#9371DB"/>
<path d="M316.008 147.992L286.863 141.241L313.473 171.359L324.878 162.012L333.748 143.838L316.008 147.992Z" fill="#9371DB"/>
<path d="M316.008 147.992L286.863 141.241L313.473 171.359L324.878 162.012L333.748 143.838L316.008 147.992Z" fill="#9371DB"/>
<path d="M316.008 147.992L286.863 141.241L313.473 171.359L324.878 162.012L333.748 143.838L316.008 147.992Z" fill="#9371DB"/>
<path d="M430.687 88.7952L414.214 114.759L435.122 124.106L430.687 88.7952Z" fill="#9371DB"/>
<path d="M432.588 64.3894L430.687 76.8519L446.527 90.8722L432.588 64.3894Z" fill="#9371DB"/>
<path d="M341.751 319.09L285.269 262.838L348.879 416.204L359.478 427.446L341.751 319.09Z" fill="#67B354" stroke="#404040" stroke-width="2"/>
<g style="mix-blend-mode:color-dodge">
<path d="M320.443 298.58L341.351 318.832L345.786 348.949L321.71 320.909L320.443 298.58Z" fill="#67B354"/>
</g>
<g style="mix-blend-mode:screen">
<path d="M305.871 311.042L288.764 267.424L319.81 297.541L321.71 319.351L305.871 311.042Z" fill="#67B354"/>
</g>
<g style="mix-blend-mode:screen">
<path d="M359.092 425.801L348.954 416.454L333.748 378.548L335.015 337.006L345.786 348.949L359.092 425.801Z" fill="#67B354"/>
</g>
<path d="M334.295 335.489L333.532 377.999" stroke="#404040" stroke-width="2" stroke-linecap="round"/>
<path d="M345.737 349.242L320.565 318.61L305.31 309.858" stroke="#404040" stroke-width="2" stroke-linecap="round"/>
<path d="M319.803 297.98L322.087 320.486" stroke="#404040" stroke-width="2" stroke-linecap="round"/>
<path d="M341.751 319.09L285.269 262.838L348.879 416.204L359.478 427.446L341.751 319.09Z" stroke="#404040" stroke-width="2"/>
<path d="M284.213 202.207L356.564 309.754L416.607 250.703L421.624 120.282L402.036 46.8907L284.213 202.207Z" fill="#67B354" stroke="#404040" stroke-width="2"/>
<g style="mix-blend-mode:color-dodge">
<path d="M374.931 83.6026L401.542 48.2922L411.679 85.6797L377.465 109.566L374.931 83.6026Z" fill="#67B354"/>
</g>
<g style="mix-blend-mode:color-dodge">
<path d="M394.573 135.529L420.55 122.548L419.283 167.205L386.97 178.629L371.13 197.842L326.779 207.189L323.611 191.091L333.115 171.359L360.993 143.838L394.573 135.529Z" fill="#67B354"/>
</g>
<g style="mix-blend-mode:screen">
<path d="M321.076 255.481L335.015 250.807L371.129 249.25L342.618 289.233L321.076 255.481Z" fill="#67B354"/>
</g>
<g style="mix-blend-mode:screen">
<path d="M284.328 201.997L299.534 182.264L333.115 170.321L323.611 190.573L326.145 207.708L309.038 238.865L284.328 201.997Z" fill="#67B354"/>
</g>
<g style="mix-blend-mode:screen">
<path d="M395.206 135.529L362.893 142.799L377.466 116.836V110.604L411.679 86.1987L421.817 121.509L395.206 135.529Z" fill="#67B354"/>
</g>
<g style="mix-blend-mode:color-dodge">
<path d="M371.763 249.25L380.634 248.73L417.382 227.959L416.114 250.807L356.557 309.485L343.885 289.233L371.763 249.25Z" fill="#67B354"/>
</g>
<path d="M326.174 207.481L323.295 190.963L333.363 170.406" stroke="#404040" stroke-width="2" stroke-linecap="round"/>
<path d="M333.753 169.795L300.261 182.114" stroke="#404040" stroke-width="2" stroke-linecap="round"/>
<path d="M333.264 170.625L362.164 143.177L378.001 116.63L374.931 83.0832" stroke="#404040" stroke-width="2" stroke-linecap="round"/>
<path d="M361.445 143.767L394.557 135.508L420.47 121.939" stroke="#404040" stroke-width="2" stroke-linecap="round"/>
<path d="M419.03 167.365L387.359 178.574L370.803 198.042L326.174 207.481L309.618 238.748" stroke="#404040" stroke-width="2" stroke-linecap="round"/>
<path d="M411.833 85.9534L378.001 110.141" stroke="#404040" stroke-width="2" stroke-linecap="round"/>
<path d="M416.872 227.539L380.161 248.777L334.812 250.547L320.417 255.266" stroke="#404040" stroke-width="2" stroke-linecap="round"/>
<path d="M372.343 249.066L343.45 289.483" stroke="#404040" stroke-width="2" stroke-linecap="round"/>
<path d="M284.213 202.207L356.564 309.754L416.607 250.703L421.625 120.282L402.036 46.8907L284.213 202.207Z" stroke="#404040" stroke-width="2"/>
</g>
<mask id="mask1_179_593" style="mask-type:alpha" maskUnits="userSpaceOnUse" x="48" y="0" width="208" height="512">
<path d="M255.183 240.941L252.649 242.499L186.756 417.493L112.626 512L138.603 435.667L118.328 417.493L141.771 325.063L66.374 265.866L70.8091 189.014L48 124.625L111.359 0L255.183 204.592V240.941Z" fill="#9371DB"/>
</mask>
<g mask="url(#mask1_179_593)">
<path d="M255.183 240.941L252.649 242.499L186.756 417.493L112.626 512L138.603 435.667L118.328 417.493L141.771 325.063L66.374 265.866L70.8091 189.014L48 124.625L111.359 0L255.183 204.592V240.941Z" fill="#9371DB"/>
<g style="mix-blend-mode:screen">
<path d="M111.993 -11.4241L264.054 204.073L262.153 248.73L200.695 421.128L117.695 522.905L99.9544 508.884L125.298 319.87L58.1376 266.385L64.4735 192.13L42.9315 124.625L111.993 -11.4241Z" fill="#9371DB"/>
</g>
<g style="mix-blend-mode:screen">
<path d="M73.3435 31.1562L94.8854 37.9068L109.458 51.927L122.763 47.7729L132.267 35.8297L163.313 39.4646L130.366 82.0447L182.954 178.629L236.175 171.359L194.992 147.992L188.023 116.836L167.114 105.931L199.427 83.0832L250.114 168.763L194.992 240.941L236.175 223.805L251.065 227.7L265.954 231.594L250.114 268.463L191.191 245.095L179.153 260.674L197.527 268.463L191.191 305.85L261.519 275.213L191.191 327.659L200.695 340.122L217.168 327.659L231.74 366.085H194.992L185.488 338.045L176.618 366.085L193.092 397.241L191.191 454.88L165.847 423.205L162.046 407.108L126.565 416.454V431.513L77.145 428.917L162.046 393.087L170.916 353.623L139.87 362.45L111.992 347.392L170.916 327.659L165.847 277.29L138.603 284.56L114.527 331.813L68.2748 325.063L110.092 301.177L111.992 285.598L136.702 283.521L117.695 256.519L54.3358 271.059L49.9007 258.596L106.29 190.053L94.8854 144.357L49.9007 166.166L30.2595 94.5072L80.3129 88.7952L47.3664 135.01L54.3358 157.858L75.8778 124.106L106.29 110.085L80.3129 76.852L73.3435 31.1562Z" fill="#9371DB"/>
</g>
<path d="M150.008 52.9653L180.422 97.1033L158.244 111.643L150.008 52.9653Z" fill="#9371DB"/>
<path d="M102.489 4.67334L130.369 23.3671L132.267 35.8295L122.763 47.7727L94.8855 38.4259L102.489 4.67334Z" fill="#9371DB"/>
<path d="M60.0381 159.647L92.351 207.708L60.0381 246.134V159.647Z" fill="#9371DB"/>
<path d="M103.122 259.115L111.992 285.598L110.091 303.253L80.9463 292.868L103.122 259.115Z" fill="#9371DB"/>
<path d="M134.802 291.311L170.282 317.274L167.114 329.217L141.771 325.063L134.802 291.311Z" fill="#9371DB"/>
<path d="M139.87 362.45L163.313 355.7L118.328 411.781L132.901 358.296L139.87 362.45Z" fill="#9371DB"/>
<path d="M139.87 362.45L163.313 355.7L118.328 411.781L132.901 358.296L139.87 362.45Z" fill="#9371DB"/>
<path d="M150.008 430.475L163.947 414.377L165.848 423.205L174.718 434.109L141.138 480.324L137.97 435.667L150.008 430.475Z" fill="#9371DB"/>
<path d="M150.008 430.475L163.947 414.377L165.848 423.205L174.718 434.109L141.138 480.324L137.97 435.667L150.008 430.475Z" fill="#9371DB"/>
<path d="M241.244 200.957L248.214 189.014L261.519 213.939L236.175 224.325L227.305 201.996L241.244 200.957Z" fill="#9371DB"/>
<path d="M241.244 200.957L248.214 189.014L261.519 213.939L236.175 224.325L227.305 201.996L241.244 200.957Z" fill="#9371DB"/>
<path d="M241.244 200.957L248.214 189.014L261.519 213.939L236.175 224.325L227.305 201.996L241.244 200.957Z" fill="#9371DB"/>
<path d="M241.244 200.957L248.214 189.014L261.519 213.939L236.175 224.325L227.305 201.996L241.244 200.957Z" fill="#9371DB"/>
<path d="M227.939 259.635L244.412 265.866L212.733 296.503L206.397 286.637L197.527 268.462L227.939 259.635Z" fill="#9371DB"/>
<path d="M227.939 259.635L244.412 265.866L212.733 296.503L206.397 286.637L197.527 268.462L227.939 259.635Z" fill="#9371DB"/>
<path d="M227.939 259.635L244.412 265.866L212.733 296.503L206.397 286.637L197.527 268.462L227.939 259.635Z" fill="#9371DB"/>
<path d="M227.939 259.635L244.412 265.866L212.733 296.503L206.397 286.637L197.527 268.462L227.939 259.635Z" fill="#9371DB"/>
<path d="M197.527 321.947L217.168 327.659L200.694 340.122L191.191 337.525L197.527 321.947Z" fill="#9371DB"/>
<path d="M197.527 321.947L217.168 327.659L200.694 340.122L191.191 337.525L197.527 321.947Z" fill="#9371DB"/>
<path d="M197.527 321.947L217.168 327.659L200.694 340.122L191.191 337.525L197.527 321.947Z" fill="#9371DB"/>
<path d="M197.527 321.947L217.168 327.659L200.694 340.122L191.191 337.525L197.527 321.947Z" fill="#9371DB"/>
<path d="M194.992 366.085H208.298L204.496 376.99L194.992 366.085Z" fill="#9371DB"/>
<path d="M194.992 366.085H208.298L204.496 376.99L194.992 366.085Z" fill="#9371DB"/>
<path d="M194.992 366.085H208.298L204.496 376.99L194.992 366.085Z" fill="#9371DB"/>
<path d="M194.992 366.085H208.298L204.496 376.99L194.992 366.085Z" fill="#9371DB"/>
<path d="M194.992 147.992L224.137 141.241L197.527 171.359L186.122 162.012L177.252 143.838L194.992 147.992Z" fill="#9371DB"/>
<path d="M194.992 147.992L224.137 141.241L197.527 171.359L186.122 162.012L177.252 143.838L194.992 147.992Z" fill="#9371DB"/>
<path d="M194.992 147.992L224.137 141.241L197.527 171.359L186.122 162.012L177.252 143.838L194.992 147.992Z" fill="#9371DB"/>
<path d="M194.992 147.992L224.137 141.241L197.527 171.359L186.122 162.012L177.252 143.838L194.992 147.992Z" fill="#9371DB"/>
<path d="M80.3131 88.7952L96.7864 114.759L75.878 124.106L80.3131 88.7952Z" fill="#9371DB"/>
<path d="M78.4123 64.3894L80.3131 76.8519L64.4734 90.8722L78.4123 64.3894Z" fill="#9371DB"/>
<path d="M169.249 319.09L225.731 262.838L162.121 416.204L151.522 427.446L169.249 319.09Z" fill="#67B354" stroke="#404040" stroke-width="2"/>
<g style="mix-blend-mode:color-dodge">
<path d="M190.557 298.58L169.649 318.832L165.214 348.949L189.29 320.909L190.557 298.58Z" fill="#67B354"/>
</g>
<g style="mix-blend-mode:screen">
<path d="M205.13 311.042L222.237 267.424L191.191 297.541L189.29 319.351L205.13 311.042Z" fill="#67B354"/>
</g>
<g style="mix-blend-mode:screen">
<path d="M151.908 425.801L162.046 416.454L177.252 378.548L175.985 337.006L165.214 348.949L151.908 425.801Z" fill="#67B354"/>
</g>
<path d="M176.705 335.489L177.468 377.999" stroke="#404040" stroke-width="2" stroke-linecap="round"/>
<path d="M165.263 349.242L190.435 318.61L205.69 309.858" stroke="#404040" stroke-width="2" stroke-linecap="round"/>
<path d="M191.198 297.98L188.913 320.486" stroke="#404040" stroke-width="2" stroke-linecap="round"/>
<path d="M169.249 319.09L225.731 262.838L162.121 416.204L151.522 427.446L169.249 319.09Z" stroke="#404040" stroke-width="2"/>
<path d="M226.787 202.207L154.436 309.754L94.3932 250.703L89.3755 120.283L108.964 46.8909L226.787 202.207Z" fill="#67B354" stroke="#404040" stroke-width="2"/>
<g style="mix-blend-mode:color-dodge">
<path d="M136.069 83.6026L109.458 48.2922L99.3209 85.6797L133.535 109.566L136.069 83.6026Z" fill="#67B354"/>
</g>
<g style="mix-blend-mode:color-dodge">
<path d="M116.428 135.529L90.4507 122.548L91.7179 167.205L124.031 178.629L139.871 197.842L184.222 207.189L187.39 191.091L177.886 171.359L150.008 143.838L116.428 135.529Z" fill="#67B354"/>
</g>
<g style="mix-blend-mode:screen">
<path d="M189.924 255.481L175.985 250.807L139.871 249.25L168.382 289.233L189.924 255.481Z" fill="#67B354"/>
</g>
<g style="mix-blend-mode:screen">
<path d="M226.672 201.997L211.466 182.264L177.886 170.321L187.39 190.573L184.855 207.708L201.962 238.865L226.672 201.997Z" fill="#67B354"/>
</g>
<g style="mix-blend-mode:screen">
<path d="M115.794 135.529L148.107 142.799L133.535 116.836V110.604L99.321 86.1987L89.1836 121.509L115.794 135.529Z" fill="#67B354"/>
</g>
<g style="mix-blend-mode:color-dodge">
<path d="M139.237 249.25L130.367 248.73L93.6187 227.959L94.8858 250.807L154.443 309.485L167.115 289.233L139.237 249.25Z" fill="#67B354"/>
</g>
<path d="M184.826 207.481L187.705 190.963L177.636 170.406" stroke="#404040" stroke-width="2" stroke-linecap="round"/>
<path d="M177.246 169.795L210.739 182.114" stroke="#404040" stroke-width="2" stroke-linecap="round"/>
<path d="M177.736 170.625L148.836 143.177L132.999 116.63L136.069 83.0832" stroke="#404040" stroke-width="2" stroke-linecap="round"/>
<path d="M149.556 143.768L116.444 135.509L90.5302 121.94" stroke="#404040" stroke-width="2" stroke-linecap="round"/>
<path d="M91.9699 167.365L123.641 178.574L140.197 198.042L184.826 207.481L201.382 238.748" stroke="#404040" stroke-width="2" stroke-linecap="round"/>
<path d="M99.1674 85.9534L132.999 110.141" stroke="#404040" stroke-width="2" stroke-linecap="round"/>
<path d="M94.1284 227.539L130.839 248.777L176.188 250.547L190.584 255.266" stroke="#404040" stroke-width="2" stroke-linecap="round"/>
<path d="M138.657 249.066L167.55 289.483" stroke="#404040" stroke-width="2" stroke-linecap="round"/>
<path d="M226.787 202.207L154.436 309.754L94.3931 250.703L89.3754 120.282L108.964 46.8907L226.787 202.207Z" stroke="#404040" stroke-width="2"/>
</g>
</svg>
